<?xml version="1.0" encoding="UTF-8" standalone="no"?>
<!-- Created with Inkscape (http://www.inkscape.org/) -->

<svg
   xmlns:dc="http://purl.org/dc/elements/1.1/"
   xmlns:cc="http://creativecommons.org/ns#"
   xmlns:rdf="http://www.w3.org/1999/02/22-rdf-syntax-ns#"
   xmlns:svg="http://www.w3.org/2000/svg"
   xmlns="http://www.w3.org/2000/svg"
   xmlns:sodipodi="http://sodipodi.sourceforge.net/DTD/sodipodi-0.dtd"
   xmlns:inkscape="http://www.inkscape.org/namespaces/inkscape"
   width="243mm"
   height="215mm"
   viewBox="0 0 243 215"
   version="1.1"
   id="svg8"
   inkscape:version="0.92.4 5da689c313, 2019-01-14"
   sodipodi:docname="archery.svg">
  <defs
     id="defs2" />
  <sodipodi:namedview
     id="base"
     pagecolor="#ffffff"
     bordercolor="#666666"
     borderopacity="1.0"
     inkscape:pageopacity="0.0"
     inkscape:pageshadow="2"
     inkscape:zoom="0.32"
     inkscape:cx="-518.1734"
     inkscape:cy="626.72886"
     inkscape:document-units="mm"
     inkscape:current-layer="layer1"
     showgrid="false"
     inkscape:snap-text-baseline="true"
     inkscape:window-width="1920"
     inkscape:window-height="1060"
     inkscape:window-x="0"
     inkscape:window-y="20"
     inkscape:window-maximized="0"
     units="mm"
     width="294mm" />
  <metadata
     id="metadata5">
    <rdf:RDF>
      <cc:Work
         rdf:about="">
        <dc:format>image/svg+xml</dc:format>
        <dc:type
           rdf:resource="http://purl.org/dc/dcmitype/StillImage" />
        <dc:title></dc:title>
      </cc:Work>
    </rdf:RDF>
  </metadata>
  <g
     inkscape:label="Layer 1"
     inkscape:groupmode="layer"
     id="layer1"
     transform="translate(0,-82)">
    <path
       style="opacity:0.98999999;fill:#512800;fill-opacity:1;stroke:#c0c0c0;stroke-width:0.26458332"
       id="path72"
       d="m 242.2514,86.3346 c -0.67801,0.54438 -1.38744,1.05179 -2.03404,1.63313 -3.33759,3.00077 -6.19292,6.032626 -9.18167,9.450805 -2.49507,2.853585 -4.94456,5.748845 -7.31227,8.708975 -7.53858,9.42479 -11.45029,15.0965 -18.70238,25.10119 -3.64443,5.2248 -7.36531,10.39709 -10.93328,15.6744 -3.7247,5.50911 -7.33569,11.09456 -10.94251,16.68156 -6.46706,10.01755 -14.68901,23.14691 -20.94289,33.34413 -7.04425,11.48596 -10.46827,17.33279 -17.20832,28.67676 -8.72634,14.89248 -18.01995,29.43842 -27.1203,44.10178 -1.84786,3.07204 -1.00503,1.67188 -2.52807,4.20076 0,0 -24.128798,-1.88892 -24.128798,-1.88892 v 0 c 3.21144,-2.25537 1.47634,-0.98024 5.1694,-3.87375 1.32091,-1.13172 2.6684,-2.23311 3.962708,-3.39515 13.3087,-11.94848 24.84692,-25.69244 35.95244,-39.6636 3.39209,-4.44035 6.87008,-8.81638 10.17629,-13.32105 8.29619,-11.30342 13.86497,-19.63623 21.40703,-31.54397 6.86826,-10.84392 13.8289,-22.42233 20.05189,-33.65742 2.89099,-5.21945 5.59131,-10.54226 8.38697,-15.81339 2.31289,-4.62935 4.6894,-9.22745 6.93867,-13.88804 4.20085,-8.70436 8.19954,-17.575444 11.45093,-26.6868 0.9295,-2.60474 1.08213,-3.30262 1.67957,-5.55326 0,0 25.85863,1.71186 25.85863,1.71186 z"
       inkscape:connector-curvature="0" />
    <path
       style="opacity:0.98999999;fill:#98682a;fill-opacity:1;stroke:#c0c0c0;stroke-width:0.26458332"
       id="path76"
       d="m 26.199289,110.14395 c 2.900689,0.19857 5.811211,0.23985 8.717261,0.29978 1.484574,0.0306 2.971322,0.001 4.453869,0.0844 1.851971,0.10414 3.696091,0.31856 5.544138,0.47784 2.23983,0.35079 4.493948,0.6201 6.719492,1.05236 11.866493,2.30477 23.410934,6.25536 34.501729,11.01398 3.159744,1.35572 6.258084,2.85025 9.387114,4.27538 12.376618,5.93232 24.295008,12.78891 35.942148,20.03768 5.47028,3.40449 10.36693,6.63829 15.75509,10.15318 8.4698,5.61791 16.9514,11.222 25.22819,17.12286 1.56624,1.11664 3.1351,2.23021 4.67607,3.38147 1.32834,0.9924 2.62044,2.0324 3.93066,3.0486 2.58723,1.98019 5.13434,4.01169 7.68153,6.04279 0,0 -24.32039,1.87116 -24.32039,1.87116 v 0 c -1.45611,-2.14978 -3.01544,-4.21855 -4.84476,-6.07423 -2.97578,-2.95584 -3.51361,-3.57751 -6.81419,-6.46049 -7.07987,-6.1841 -14.65916,-11.76664 -22.25003,-17.29813 -2.36912,-1.67452 -4.7194,-3.37602 -7.10737,-5.02355 -13.64811,-9.4162 -27.839678,-18.11085 -42.917914,-25.05951 -3.210841,-1.38997 -6.385415,-2.86691 -9.632523,-4.16992 -12.033183,-4.82868 -24.605236,-8.51507 -37.484999,-10.19207 -2.660694,-0.34643 -5.344468,-0.48362 -8.016701,-0.72543 -2.297029,-0.0539 -4.593472,-0.14727 -6.891091,-0.16155 -1.840083,-0.0114 -3.679835,0.0543 -5.519709,0.0844 -4.1680911,0.0682 -8.3369911,0.13645 -12.50266509,0.29977 0,0 25.76505109,-4.08078 25.76505109,-4.08078 z"
       inkscape:connector-curvature="0" />
    <path
       style="opacity:1;fill:#512800;fill-opacity:1;stroke:#c0c0c0;stroke-width:0.25007543"
       id="path74"
       d="m 231.88011,86.05805 c -7.8087,-0.008 -15.59517,1.03409 -23.28467,2.23212 -11.24922,1.75263 -13.20775,2.30787 -24.88221,4.69419 -5.04523,1.225343 -10.11817,2.352057 -15.13569,3.676051 -10.65012,2.810275 -21.13248,5.975699 -31.48395,9.663969 -9.5359,3.39768 -19.23802,7.29517 -28.27607,11.78734 -4.00689,1.99153 -7.838,4.28692 -11.756958,6.43039 -8.18926,5.59789 -11.729494,7.3704 -18.457358,14.41588 -5.060416,5.2993 -8.733026,10.78389 -11.839736,17.28529 -3.877165,8.11371 -4.446023,11.96096 -6.735437,20.62341 -0.639865,3.78673 -1.476306,7.54819 -1.919595,11.36017 -0.950337,8.17228 -1.111154,16.37832 -0.221861,24.56724 0.458851,4.22527 1.207346,8.42638 2.154972,12.57762 2.438916,10.68415 4.262199,14.09488 8.347574,24.35588 2.181955,3.73676 4.121692,7.61066 6.545865,11.21027 6.112318,9.07608 13.879976,17.16329 23.283596,23.23616 5.888238,3.80261 8.428088,4.51065 14.742688,7.06373 5.50318,1.54881 7.06584,2.33463 12.74514,2.6277 1.92563,0.0994 7.70156,0.007 5.78254,-0.17349 -4.86917,-0.4595 -9.86898,0.26715 -14.66276,-0.66455 -1.49911,-0.29136 2.95811,-0.77501 4.36968,-1.33598 1.35824,-0.53979 2.60576,-1.30264 3.90865,-1.95397 0,0 20.66293,2.10402 20.66293,2.10402 v 0 c -1.39474,0.75691 -2.72255,1.63785 -4.18421,2.2707 -9.46071,4.09622 -18.42406,2.25314 -29.62005,2.50999 -1.75852,0.0403 -3.52817,0.005 -5.27248,-0.21008 -5.18974,-0.642 -6.66449,-1.50228 -11.615728,-3.28622 -4.85456,-2.73332 -7.6612,-4.05638 -12.059272,-7.72498 -7.996821,-6.67045 -13.937755,-15.16867 -19.033629,-23.95616 -2.150304,-3.70805 -4.016592,-7.55836 -6.024889,-11.33754 -1.845828,-4.10085 -4.02162,-8.08148 -5.537484,-12.30253 -1.433219,-3.99092 -2.353768,-8.1364 -3.283265,-12.2596 -1.773229,-7.86593 -3.237774,-17.30518 -3.594558,-25.35736 -0.4642,-10.47649 0.30613,-13.34306 1.558114,-23.59427 1.795897,-8.44412 2.261065,-13.11317 5.992469,-21.00548 3.19794,-6.76398 7.396371,-12.41732 12.941653,-17.6394 7.425093,-6.99233 12.004985,-9.08806 20.881007,-14.44499 4.353724,-2.11789 8.642964,-4.35978 13.061104,-6.35367 4.727278,-2.13339 9.536538,-4.10217 14.363798,-6.02304 18.82851,-7.4923 38.18286,-13.729935 57.61694,-19.62989 3.68005,-1.03274 7.34905,-2.10167 11.04014,-3.09822 7.92618,-2.13995 15.93173,-4.00879 23.90793,-5.96942 0,0 24.97507,3.62872 24.97507,3.62872 z"
       inkscape:connector-curvature="0" />
    <text
       xml:space="preserve"
       style="font-style:normal;font-variant:normal;font-weight:normal;font-stretch:normal;font-size:0.16031575px;line-height:125%;font-family:'DejaVu Serif';-inkscape-font-specification:'DejaVu Serif';letter-spacing:0px;word-spacing:0px;fill:#000000;fill-opacity:1;stroke:none;stroke-width:0.00890643px;stroke-linecap:butt;stroke-linejoin:miter;stroke-opacity:1"
       x="115.47517"
       y="274.03738"
       id="text4592"><tspan
         sodipodi:role="line"
         id="tspan4590"
         x="115.47517"
         y="274.03738"
         style="font-style:oblique;font-variant:normal;font-weight:normal;font-stretch:normal;font-family:'DejaVu Sans Mono';-inkscape-font-specification:'DejaVu Sans Mono Oblique';opacity:0.24100001;stroke-width:0.00890643px">rc</tspan></text>
  </g>
</svg>
